# xmcd CD database file
#
# Track frame offsets:
#	150
#	19902
#	33922
#	52390
#	65060
#	85427
#	100967
#	114504
#	129057
#	145447
#	157320
#	175687
#	190112
#	210882
#	223950
#	239420
#	254182
#
# Disc length: 3647 seconds
#
# Revision: 0
# Processed by: cddbd v1.5.2PL0 Copyright (c) Steve Scherf et al.
# Submitted via: CDex 1.70beta2
#
DISCID=070e3d11
DTITLE=Bob Wilber  - Bean: Bob Wilber's Tribute to Coleman Hawkins
DYEAR=1994
DGENRE=Jazz
TTITLE0=The Man I Love
TTITLE1=Netcha's Dream
TTITLE2=Crazy Rhythm
TTITLE3=Buh-de-Baht
TTITLE4=Low Flame
TTITLE5=Avalon
TTITLE6=Stuffy
TTITLE7=Romanza
TTITLE8=Spotlite
TTITLE9=Just a Gigolo
TTITLE10=Tenderly
TTITLE11=Pick-up Boys
TTITLE12=Bean 'n' Soul
TTITLE13=Stumpy
TTITLE14=When Day Is Done
TTITLE15=Feedin' The Bean
TTITLE16=Flight Of The Hawk
EXTD=YEAR: 1994
EXTT0=
EXTT1=
EXTT2=
EXTT3=
EXTT4=
EXTT5=
EXTT6=
EXTT7=
EXTT8=
EXTT9=
EXTT10=
EXTT11=
EXTT12=
EXTT13=
EXTT14=
EXTT15=
EXTT16=
PLAYORDER=
